<?xml version="1.0" standalone="no"?><!DOCTYPE svg PUBLIC "-//W3C//DTD SVG 1.1//EN" "http://www.w3.org/Graphics/SVG/1.1/DTD/svg11.dtd"><svg t="1722964079562" class="icon" viewBox="0 0 1024 1024" version="1.1" xmlns="http://www.w3.org/2000/svg" p-id="4270" xmlns:xlink="http://www.w3.org/1999/xlink" width="200" height="200"><path d="M109.226667 157.952c0-20.865707 16.902827-37.778773 37.778773-37.778773h265.284267c20.865707 0 37.778773 16.902827 37.778773 37.778773v265.284267c0 20.865707-16.902827 37.778773-37.778773 37.778773h-265.284267c-20.865707 0-37.778773-16.902827-37.778773-37.778773v-265.284267z m570.53184-50.937173c14.752427-14.752427 38.662827-14.762667 53.425493 0l187.589973 187.58656c14.749013 14.752427 14.75584 38.66624 0 53.425493L733.184 535.610027c-14.752427 14.759253-38.662827 14.76608-53.425493 0l-187.58656-187.583147c-14.752427-14.752427-14.762667-38.66624 0-53.425493l187.58656-187.58656z m-136.87808 498.240853c0-20.862293 16.899413-37.77536 37.778773-37.77536h265.280853c20.865707 0 37.778773 16.899413 37.778774 37.77536v265.28768c0 20.862293-16.899413 37.77536-37.778774 37.77536h-265.280853c-20.865707 0-37.778773-16.902827-37.778773-37.77536v-265.28768z m-433.65376 0c0-20.862293 16.902827-37.77536 37.778773-37.77536h265.284267c20.865707 0 37.778773 16.899413 37.778773 37.77536v265.28768c0 20.862293-16.902827 37.77536-37.778773 37.77536h-265.284267c-20.865707 0-37.778773-16.902827-37.778773-37.77536v-265.28768z"  p-id="4271"></path></svg>