<?xml version="1.0" standalone="no"?><!DOCTYPE svg PUBLIC "-//W3C//DTD SVG 1.1//EN" "http://www.w3.org/Graphics/SVG/1.1/DTD/svg11.dtd"><svg t="1723017547815" class="icon" viewBox="0 0 1024 1024" version="1.1" xmlns="http://www.w3.org/2000/svg" p-id="4310" xmlns:xlink="http://www.w3.org/1999/xlink" width="200" height="200"><path d="M902.9 344.4L527.3 67.6c-7.2-5.3-17-5.4-24.3-0.3L107.1 344.4c-5.6 3.9-8.9 10.3-8.9 17.1v552.1c0 11.5 9.3 20.8 20.8 20.8h250.2c11.5 0 20.8-9.3 20.8-20.8V793.7c0-68.5 52.8-128.2 121.2-130.3 70.8-2.1 128.9 54.7 128.9 125v125.1c0 11.5 9.3 20.8 20.8 20.8h229.3c11.5 0 20.8-9.3 20.8-20.8V361.1c0.4-6.6-2.8-12.8-8.1-16.7z"  p-id="4311"></path></svg>