<?xml version="1.0" standalone="no"?><!DOCTYPE svg PUBLIC "-//W3C//DTD SVG 1.1//EN" "http://www.w3.org/Graphics/SVG/1.1/DTD/svg11.dtd"><svg t="1722327308564" class="icon" viewBox="0 0 1024 1024" version="1.1" xmlns="http://www.w3.org/2000/svg" p-id="3547" xmlns:xlink="http://www.w3.org/1999/xlink" width="200" height="200"><path d="M916.21 1024H107.79c-29.777 0-53.895-24.145-53.895-53.895V485.053c0-29.777 24.118-53.895 53.894-53.895h80.843v-107.79C188.632 144.761 333.42 0 512 0c178.58 0 323.368 144.761 323.368 323.368v107.79h80.843c29.776 0 53.894 24.118 53.894 53.895v485.052c0 29.75-24.118 53.895-53.894 53.895zM781.475 323.368c0-148.83-120.644-269.473-269.474-269.473-148.83 0-269.474 120.643-269.474 269.473v107.79h538.948v-107.79zM916.21 485.053H107.789v485.052h808.422V485.053zM512 592.843c14.875 0 26.947 12.072 26.947 26.946v215.58c0 14.874-12.072 26.947-26.947 26.947s-26.947-12.073-26.947-26.948V619.79c0-14.874 12.072-26.947 26.947-26.947z" p-id="3548"></path></svg>