<?xml version="1.0" standalone="no"?><!DOCTYPE svg PUBLIC "-//W3C//DTD SVG 1.1//EN" "http://www.w3.org/Graphics/SVG/1.1/DTD/svg11.dtd"><svg t="1722964102465" class="icon" viewBox="0 0 1024 1024" version="1.1" xmlns="http://www.w3.org/2000/svg" p-id="6525" xmlns:xlink="http://www.w3.org/1999/xlink" width="200" height="200"><path d="M896.1536 1.024H130.9184c-32 0-57.9072 25.9584-57.9584 57.9584v904.3456c0 32 25.9584 57.9072 57.9584 57.9584h765.2352c32 0 57.9584-25.9584 57.9584-57.9584V58.9824c0-32-25.9584-57.9584-57.9584-58.0096zM258.4576 209.664a23.1936 23.1936 0 0 1 41.3184-14.5408l144.2304 180.2752V209.7152a23.1936 23.1936 0 0 1 46.336 0v231.8336a23.1936 23.1936 0 0 1-41.2672 14.5408L304.8448 275.8144v165.7344a23.1936 23.1936 0 1 1-46.3872 0V209.7152z m486.9632 626.0736H281.6512a23.1936 23.1936 0 1 1 0-46.3872h463.7696a23.1936 23.1936 0 0 1 0 46.3872z m0-185.4976H281.6512a23.1936 23.1936 0 0 1 0-46.3872h463.7696a23.1936 23.1936 0 0 1 0 46.3872z m0-231.936h-139.1104a23.1936 23.1936 0 1 1 0-46.336h139.1104a23.1936 23.1936 0 0 1 0 46.3872z m0-185.4976h-139.1104a23.1936 23.1936 0 1 1 0-46.336h139.1104a23.1936 23.1936 0 0 1 0 46.336z"  p-id="6526"></path></svg>